<svg width="88" height="88" viewBox="0 0 88 88" fill="none" xmlns="http://www.w3.org/2000/svg">
<path d="M87.5216 43.7608C87.5216 67.9292 67.9292 87.5216 43.7608 87.5216C19.5924 87.5216 0 67.9292 0 43.7608C0 41.4672 3.42489 41.0635 4.70931 42.9637C9.66127 50.2899 18.0447 55.1062 27.5531 55.1062C42.7703 55.1062 55.1062 42.7703 55.1062 27.5531C55.1062 18.0447 50.2899 9.66128 42.9638 4.70931C41.0635 3.42489 41.4672 0 43.7608 0C67.9292 0 87.5216 19.5924 87.5216 43.7608Z" fill="#313131"/>
<path d="M26.4251 14.5921C26.8851 13.3616 25.8843 12.0789 24.5788 12.2259L21.4761 12.5753C21.0129 12.6275 20.5479 12.4938 20.183 12.2036L17.7394 10.2599C16.7113 9.44213 15.1821 9.99761 14.9185 11.2846L14.292 14.3434C14.1985 14.8001 13.9277 15.2011 13.5389 15.4584L10.9353 17.1817C9.83982 17.9068 9.89555 19.5329 11.0381 20.1812L13.7536 21.7223C14.1591 21.9524 14.4567 22.3338 14.5813 22.7831L15.4157 25.7918C15.7668 27.0577 17.3305 27.5072 18.3002 26.6209L20.605 24.5145C20.9491 24.2 21.4038 24.0348 21.8696 24.0552L24.9889 24.1913C26.3014 24.2486 27.2121 22.9004 26.6688 21.7043L25.3777 18.8614C25.185 18.4369 25.1684 17.9534 25.3316 17.5167L26.4251 14.5921Z" fill="#313131"/>
</svg>
